<?xml version="1.0" encoding="UTF-8"?>
<svg version="1.1" xmlns="http://www.w3.org/2000/svg" width="512" height="512">
<path d="M0 0 C168.96 0 337.92 0 512 0 C512 168.96 512 337.92 512 512 C343.04 512 174.08 512 0 512 C0 343.04 0 174.08 0 0 Z " fill="#FEFEFE" transform="translate(0,0)"/>
<path d="M0 0 C2.40196228 1.66297913 2.40196228 1.66297913 4.71459961 3.88696289 C5.57753632 4.70705841 6.44047302 5.52715393 7.32955933 6.37210083 C8.21080475 7.23930756 9.09205017 8.10651428 10 9 C10.84861603 9.82378143 11.69723206 10.64756287 12.57156372 11.49630737 C15.25526093 14.12384029 17.91360868 16.77488024 20.56640625 19.43359375 C21.53606389 20.40257555 22.50586974 21.37140907 23.47581482 22.34010315 C25.48493028 24.34776041 27.49226628 26.3571746 29.49829102 28.36791992 C32.07050415 30.94589136 34.64726566 33.51926299 37.22532749 36.09138393 C39.21821035 38.08066246 41.20871704 40.07230481 43.19849968 42.06468391 C44.60921932 43.47639301 46.02194975 44.88609178 47.43470764 46.29576111 C48.7075486 47.57333031 48.7075486 47.57333031 50.00610352 48.87670898 C50.75537613 49.62677719 51.50464874 50.3768454 52.27662659 51.14964294 C55.68962996 54.81412728 55.85439305 58.59777448 55.73520565 63.4762373 C54.84852174 67.72601923 53.0073107 69.86437707 50.02967834 72.829422 C49.49843324 73.38079985 48.96718813 73.93217771 48.41984469 74.50026399 C46.6285852 76.34921494 44.81570443 78.17506764 43 80 C41.70788184 81.31525349 40.416238 82.6309731 39.12502861 83.94711876 C34.67887212 88.46171662 30.19613769 92.93927893 25.71264648 97.41674805 C24.00127393 99.12947847 22.29011356 100.84242092 20.57914734 102.55555725 C16.44680873 106.69195328 12.31217011 110.82603907 8.17634403 114.95894792 C4.81621266 118.31680829 1.45707393 121.67565875 -1.90138054 125.0351963 C-2.38180135 125.51577035 -2.86222216 125.99634439 -3.35720117 126.49148128 C-4.33344579 127.46804565 -5.30968818 128.44461225 -6.28592836 129.42118106 C-15.3999736 138.53806549 -24.51706011 147.65190359 -33.6352201 156.76467244 C-41.45655528 164.58152664 -49.27524501 172.40101886 -57.09204102 180.22241211 C-66.19076633 189.32648616 -75.29110755 198.42893992 -84.39404434 207.52880317 C-85.36368543 208.49812573 -86.33332444 209.46745037 -87.30296135 210.43677711 C-87.77995455 210.91361604 -88.25694775 211.39045496 -88.74839528 211.88174355 C-92.1083543 215.24083937 -95.46715214 218.60109357 -98.8255024 221.96179771 C-103.33675689 226.47614511 -107.85064923 230.98784391 -112.36634636 235.49774742 C-114.02529107 237.1553664 -115.68337895 238.81384338 -117.34056091 240.47322464 C-119.59616723 242.73154925 -121.85480796 244.98679383 -124.11427307 247.24125671 C-124.77437411 247.90358848 -125.43447516 248.56592024 -126.11457926 249.24832267 C-126.71926285 249.85039851 -127.32394644 250.45247435 -127.94695377 251.07279491 C-128.46788044 251.59355923 -128.98880711 252.11432354 -129.52551943 252.65086859 C-132.6700043 255.52803319 -134.71778565 256.29354614 -138.875 256.3125 C-139.71804687 256.32925781 -140.56109375 256.34601563 -141.4296875 256.36328125 C-146.71501947 255.61626625 -150.1585278 252.08853462 -153.80273438 248.42431641 C-154.7271936 247.49970612 -155.65165283 246.57509583 -156.60412598 245.62246704 C-157.60077182 244.61560229 -158.59731054 243.6086315 -159.59375 242.6015625 C-160.62793775 241.56363861 -161.6625724 240.52615984 -162.69763184 239.48910522 C-165.41597181 236.76315077 -168.12825836 234.03125059 -170.83929443 231.29803467 C-173.58848154 228.52843755 -176.34328275 225.76443758 -179.09765625 223 C-183.95229603 218.12625483 -188.80197509 213.24762914 -193.64807129 208.36538696 C-198.24753931 203.73959977 -202.87150254 199.13889992 -207.50268555 194.54492188 C-213.91891432 188.17765438 -220.3275455 181.80279593 -226.73187542 175.4235611 C-230.60157411 171.56956365 -234.47404762 167.71843925 -238.3527832 163.87353516 C-242.11279896 160.14609588 -245.86545492 156.4113917 -249.61310768 152.67152405 C-251.04063296 151.24953784 -252.47079432 149.83019288 -253.90363121 148.41355896 C-255.90462481 146.43432147 -257.89605343 144.44591443 -259.88549805 142.45507812 C-260.47825027 141.87311172 -261.0710025 141.29114532 -261.68171692 140.69154358 C-265.7068161 136.63584309 -267.67357216 133.47152511 -268.4375 127.6875 C-267.32328747 118.29628007 -259.27839675 111.8483724 -252.87890625 105.515625 C-251.89100338 104.52824203 -250.90362155 103.54033749 -249.91673279 102.55194092 C-247.85794524 100.49324255 -245.79414083 98.43975903 -243.72631836 96.39013672 C-241.08739961 93.77394793 -238.45974594 91.14678146 -235.83554173 88.51584244 C-233.80180048 86.47874744 -231.76307984 84.44669638 -229.72276115 82.4161911 C-228.75228937 81.44954398 -227.78313281 80.48157443 -226.81537056 79.51221466 C-214.9096651 67.60322325 -214.9096651 67.60322325 -209.4375 66.46875 C-208.633125 66.4790625 -207.82875 66.489375 -207 66.5 C-206.195625 66.4896875 -205.39125 66.479375 -204.5625 66.46875 C-198.61385226 67.70200624 -194.31458437 72.39912462 -190.17822266 76.59472656 C-189.63114655 77.14151062 -189.08407043 77.68829468 -188.52041626 78.25164795 C-186.73017757 80.04326955 -184.94711012 81.8418491 -183.1640625 83.640625 C-181.91754233 84.89087899 -180.67057713 86.14068942 -179.42318726 87.39007568 C-176.153853 90.66701728 -172.89057176 93.94992204 -169.62854004 97.23413086 C-166.29377498 100.58941692 -162.95328516 103.93899284 -159.61328125 107.2890625 C-153.06992451 113.85381799 -146.53295202 120.42489126 -140 127 C-133.33000257 121.52192707 -127.30299176 115.42983301 -121.22143555 109.3190918 C-120.04162061 108.13735514 -118.8615759 106.95584783 -117.68132019 105.77455139 C-115.15194215 103.24202563 -112.62412273 100.70795816 -110.09750938 98.17267418 C-106.10437236 94.16597146 -102.1073849 90.16312468 -98.1098175 86.1608429 C-89.63274119 77.67269159 -81.15991493 69.18030366 -72.6875 60.6875 C-63.52292182 51.50090004 -54.35761362 42.31503543 -45.18743926 33.1340211 C-41.21086103 29.15245226 -37.23673543 25.16845607 -33.26445138 21.18260324 C-30.79997016 18.71068521 -28.33343914 16.24082049 -25.86633492 13.77152061 C-24.7197568 12.62306411 -23.57404658 11.47374039 -22.42925262 10.3235054 C-20.87147337 8.75855316 -19.31067712 7.1966742 -17.74906921 5.63554382 C-16.87508327 4.75933726 -16.00109732 3.8831307 -15.10062695 2.98037243 C-10.71450859 -1.15465396 -5.7379563 -1.04480683 0 0 Z " fill="#40A4ED" transform="translate(362,128)"/>
<path d="M0 0 C0.804375 -0.0103125 1.60875 -0.020625 2.4375 -0.03125 C8.38614774 1.20200624 12.68541563 5.89912462 16.82177734 10.09472656 C17.36885345 10.64151062 17.91592957 11.18829468 18.47958374 11.75164795 C20.26982243 13.54326955 22.05288988 15.3418491 23.8359375 17.140625 C25.08245767 18.39087899 26.32942287 19.64068942 27.57681274 20.89007568 C30.846147 24.16701728 34.10942824 27.44992204 37.37145996 30.73413086 C40.70622502 34.08941692 44.04671484 37.43899284 47.38671875 40.7890625 C53.93007549 47.35381799 60.46704798 53.92489126 67 60.5 C65.41334527 64.41808929 62.72177105 67.03435148 59.75585938 69.93945312 C59.22233353 70.47005844 58.68880768 71.00066376 58.13911438 71.54734802 C56.98292229 72.69594376 55.82442584 73.84222355 54.66389465 74.98643494 C52.82696893 76.79779754 50.99639546 78.61536668 49.1673584 80.43469238 C44.6241949 84.95113496 40.07024285 89.45664998 35.5166626 93.96258545 C31.66720243 97.77259201 27.82185301 101.58665802 23.98188782 105.40623474 C22.17893882 107.19622427 20.37006791 108.98008009 18.56091309 110.76379395 C17.45502687 111.86241432 16.34942092 112.96131691 15.24414062 114.06054688 C14.74018265 114.55417221 14.23622467 115.04779755 13.71699524 115.55638123 C10.20875568 119.06355163 8.12846512 121.51649849 7.8046875 126.515625 C7.82789063 127.58296875 7.85109375 128.6503125 7.875 129.75 C7.89304687 130.82765625 7.91109375 131.9053125 7.9296875 133.015625 C7.95289063 133.83546875 7.97609375 134.6553125 8 135.5 C3.38725754 131.63711383 -1.0126257 127.63957212 -5.27075195 123.39038086 C-5.85377579 122.81232193 -6.43679962 122.234263 -7.03749084 121.63868713 C-8.94049338 119.75013881 -10.83971648 117.8578527 -12.73828125 115.96484375 C-13.39131918 115.3146332 -14.04435711 114.66442265 -14.71718407 113.99450874 C-18.16515066 110.56145754 -21.6102897 107.12559939 -25.05297852 103.68725586 C-28.60489888 100.14084503 -32.16602077 96.60382513 -35.72933674 93.06886959 C-38.47527215 90.3415486 -41.21448565 87.60755177 -43.95189476 84.87167549 C-45.26233001 83.56426408 -46.57526266 82.25935082 -47.89074135 80.95701408 C-49.72638735 79.1384218 -51.55233625 77.31060209 -53.3762207 75.48022461 C-54.19050537 74.67976212 -54.19050537 74.67976212 -55.02124023 73.86312866 C-58.9870288 69.85294439 -60.70378038 66.74280566 -61.4375 61.1875 C-60.32328747 51.79628007 -52.27839675 45.3483724 -45.87890625 39.015625 C-44.89100338 38.02824203 -43.90362155 37.04033749 -42.91673279 36.05194092 C-40.85794524 33.99324255 -38.79414083 31.93975903 -36.72631836 29.89013672 C-34.08739961 27.27394793 -31.45974594 24.64678146 -28.83554173 22.01584244 C-26.80180048 19.97874744 -24.76307984 17.94669638 -22.72276115 15.9161911 C-21.75228937 14.94954398 -20.78313281 13.98157443 -19.81537056 13.01221466 C-6.72060838 -0.08616165 -6.72060838 -0.08616165 0 0 Z " fill="#195ABD" transform="translate(155,194.5)"/>
</svg>
